<svg width="182" height="215" viewBox="0 0 182 215" xmlns="http://www.w3.org/2000/svg"><defs><filter x="-10.8%" y="-6.4%" width="121.6%" height="117.9%" filterUnits="objectBoundingBox" id="a"><feOffset dy="5" in="SourceAlpha" result="shadowOffsetOuter1"/><feGaussianBlur stdDeviation="5" in="shadowOffsetOuter1" result="shadowBlurOuter1"/><feColorMatrix values="0 0 0 0 0 0 0 0 0 0 0 0 0 0 0 0 0 0 0.5 0" in="shadowBlurOuter1" result="shadowMatrixOuter1"/><feMerge><feMergeNode in="shadowMatrixOuter1"/><feMergeNode in="SourceGraphic"/></feMerge></filter></defs><g filter="url(#a)" transform="translate(10 5)" fill="#FFFFFE" fill-rule="evenodd"><path d="M74.07 166.29c-1.83 0-2.26 1.52-2.26 3.03 0 1.64.75 3.7 2.71 3.7 1.55 0 2.48-1.18 2.48-2.63 0-1.7-.87-4.1-2.93-4.1M161.87 8.7C85.1-9.93.17 8.1.17 8.1S-2 36.49 9.4 80.05c11.44-3.9 36.59-6.53 40.39-6.91V39.3c0-8.93-6.61-10.56-12.45-12-4.02-.99-7.82-1.92-7.82-5.48 0-1.96 1.67-3.94 4.85-3.94 2.52 0 5.75.09 9.84.2 7.88.2 19.79.52 37.85.52 6.01 0 11.94-.16 18.2-.33 7.06-.19 14.35-.39 22.68-.39 2.8 0 4.48 2.19 4.48 4.3l.78 18.22c.19 2.08.5 5.56-1.18 7.38a3.66 3.66 0 0 1-2.82 1.15c-3.57 0-4.03-3.1-4.47-6.1-.93-6.22-2.19-14.76-24.58-14.76-21.5 0-21.5 0-21.5 11.59v24.97c0 7.72 0 8.02 6.8 8.02h11.29c9.9 0 13.35-5.54 15.63-9.21 1.25-2.02 2.25-3.62 3.92-3.62h.5c2.5 0 3.67 1.64 3.8 5.33l-.04 8.35c5.66.73 32.12 4.21 37.01 6.3.02 0 0 .14-.04.36l.08.02c6.73-24.07 9.28-40.89 9.28-71.49"/><path d="M100.09 179.07c-.57 0-3.2-.32-3.2-1.04 0-.2.2-.21.29-.21.33 0 1.12.47 2.36.47 2.04 0 3.87-1.27 3.87-3.44 0-1.92-1.46-2.53-3.17-2.53-.84 0-1.21.1-1.78.1-.34 0-.3-.27-.2-.9l.92-5.68c.02-.16.32-.22.45-.22h4.35c.66 0 .7-.72 1.1-.72.21 0 .23.11.23.2 0 .07-.06.19-.11.38l-.5 1.57c-.17.6-.23.55-1.1.55h-2.96c-.85 0-1-.02-1.14.84l-.26 1.56c-.06.33-.12.62.14.62.22 0 .6-.15 1.83-.15 2.41 0 4.24 1 4.24 3.61 0 1.84-1.4 4.99-5.36 4.99zm-5.78-1.33c-.2.35-.47 1.2-1.08 1.2-.51 0-2.04-.09-4.1-.09-1.25 0-2.05.08-2.48.08-.24 0-.5-.02-.5-.2 0-.33.32-.56 2.74-3.57 1.08-1.35 3.02-4.07 3.02-5.8 0-1.4-.9-2.21-2.32-2.21-1.63 0-2.4 1.27-2.75 1.27-.23 0-.31-.12-.31-.26 0-.45 1.6-2.54 4.22-2.54 1.77 0 3.24 1.04 3.24 2.9 0 2.83-5.2 7.67-5.2 8.16 0 .14.13.24.65.24h2.84c1.95 0 2.19-1.49 2.66-1.49.15 0 .27.16.27.28a7.6 7.6 0 0 1-.9 2.03zm-10.44 1.52l-1.82 1.43.01-16.71h-7.8l1.04-1.64h6.75v-5.58l1.82-1.95v7.53h8.47l-1 1.64h-7.47v15.28zm-12.86-.2c-.16 0-.44-.01-.44-.25 0-.43.83-.37 2.28-.95 2.16-.88 3.5-3.27 3.5-4.28 0-.08 0-.3-.14-.3-.2 0-.41.24-.82.47-.44.24-1.08.47-2.16.47-2.24 0-3.52-1.68-3.52-3.8 0-2.88 2-4.8 4.89-4.8 3.13 0 4.68 2.52 4.68 5.42 0 5.9-5.94 8.03-8.27 8.03zm-5.08-.13c-.6 0-1.69-.08-2.41-.08-.75 0-2.34.08-2.81.08-.14 0-.16-.23-.16-.3 0-.73 2.03.2 2.03-1.67v-8.07c0-1.16-.38-1.14-.65-1.14-.48 0-1.08.2-1.22.2-.22 0-.28-.28-.28-.33 0-.4.5-.43.73-.5 2.93-.72 3.3-1.5 3.46-1.5.06 0 .2.04.2.2 0 .35-.16 1.2-.16 1.95v9.01c0 2.2 2.28 1.13 2.28 1.82 0 .39-.38.33-1 .33zm82.69-83.43l-.15.56s-17.54-6.98-33-10.48l-.05 8.1c.06.82.05 1.73-.5 2.35-.6.7-1.49.75-2.82.83l-.58.04c-2.78.2-3.46-2.06-4.12-4.23-1.1-3.63-2.6-8.6-13.87-8.6H80.27c-3.15 0-4.76.34-5.56 1.14-1.13 1.13-1.11 3.78-1.09 8.17l.01 2.29v24.47c-.02 5.9-.04 10.16 2.34 12.52 1.65 1.65 4.5 2.42 8.96 2.42 31.45 0 38.8-11.54 43.2-18.44 1.76-2.75 3.15-4.93 5.56-4.93.87 0 2.87.47 2.87 4.82 0 13.93-10.75 29.44-26.18 29.44-17.32 0-28.01.06-35.82.1-4.48.03-8 .05-11.27.05-2.13 0-4.54-.03-7.26-.06-4.38-.06-9.5-.12-15.57-.09-3.2 0-4.43-.75-5.32-1.9-.68-.86-1.41-2-1.04-3.13.43-1.29 2.02-1.72 4.02-2.28 4.64-1.27 11.66-3.2 11.66-15.88v-36.8c-13.68 2.2-32.1 8.23-35.71 9.44l-.63.27c6.43 20.82 19.13 50.47 31.36 68.9 16.24 24.47 40.2 52.94 72.32.44 11.63-19.01 23.96-47.06 31.56-69.5l-.06-.03z"/></g></svg>
